<svg xmlns="http://www.w3.org/2000/svg" xmlns:xlink="http://www.w3.org/1999/xlink" viewBox="0 0 205.84 203.81"><defs><style>.a,.c,.g,.j,.l{fill:none;}.b{fill:#ffe2ac;}.c,.g,.j,.l{stroke:#010101;}.c{stroke-width:2.48px;}.d{clip-path:url(#a);}.e{fill:url(#b);}.f{fill:#fff;}.g{stroke-width:0.46px;}.h{fill:#010101;}.i{fill:#fedc00;}.j{stroke-width:0.93px;}.k{fill:#fdf9ce;}.l{stroke-width:1.24px;}.m{fill:#e12228;}</style><clipPath id="a" transform="translate(8.9 13.52)"><path class="a" d="M30.88,91.37a63.14,63.14,0,0,0,36.31,57.17h53.66a63.15,63.15,0,1,0-90-57.17"/></clipPath><linearGradient id="b" x1="-180.97" y1="438.11" x2="-178.6" y2="438.11" gradientTransform="matrix(62.24, 0, 0, -62.24, 11292.97, 27355.14)" gradientUnits="userSpaceOnUse"><stop offset="0" stop-color="#502259"/><stop offset="0.15" stop-color="#502259"/><stop offset="0.24" stop-color="#5a2872"/><stop offset="0.33" stop-color="#612d82"/><stop offset="0.39" stop-color="#632e87"/><stop offset="0.43" stop-color="#7a3677"/><stop offset="0.53" stop-color="#ba4d4a"/><stop offset="0.61" stop-color="#e25b2f"/><stop offset="0.65" stop-color="#f16024"/><stop offset="0.69" stop-color="#f4844e"/><stop offset="0.73" stop-color="#f7a878"/><stop offset="0.77" stop-color="#fac69a"/><stop offset="0.82" stop-color="#fcddb5"/><stop offset="0.86" stop-color="#fdedc8"/><stop offset="0.91" stop-color="#fef7d3"/><stop offset="0.96" stop-color="#fefad7"/><stop offset="1" stop-color="#fefad7"/></linearGradient></defs><title>Seroma Logo</title><path class="b" d="M178.68,91.23A84.13,84.13,0,1,1,94.55,7.11a84.13,84.13,0,0,1,84.13,84.12" transform="translate(8.9 13.52)"/><path class="c" d="M178.68,91.23A84.13,84.13,0,1,1,94.55,7.11,84.13,84.13,0,0,1,178.68,91.23Z" transform="translate(8.9 13.52)"/><g class="d"><rect class="e" x="15.43" y="8.06" width="157.17" height="160.65" transform="translate(-12.99 158.61) rotate(-69.3)"/></g><path class="c" d="M156.83,91.37A62.81,62.81,0,1,1,94,28.56,62.81,62.81,0,0,1,156.83,91.37Z" transform="translate(8.9 13.52)"/><path class="f" d="M40,76.62s-.78,3,3.08,5c0,0-2.09,2.64,2.54,4.4,0,0-1.1,2,3.41,3.09l1.88.66s-2.32,1.87,2.64,2.42c0,0-.55,2.09,2.54,3,0,0-.33,2.09,3.09,2.65,0,0-1.55,1.87,2.2,1.87,0,0-1.1,1.32,2.2,2,0,0-.77,1.65,1.33,2.31,0,0-2.1,4.08,1,5.73a2.75,2.75,0,0,0,2.2,3.64s-.66,3.08,4,3.85l33.73-.22s-1.54-4.19,2.21-4.19c0,0,3.3.33,3.08-1,0,0,4,.77,3.09-3,0,0,4.63-1.21,1.65-3.42,0,0,4.19.23,2.43-2.86,0,0,3.41.22,2-4,0,0,4.08.22,2-4.08,0,0,4.52-.44,1.22-4.51,0,0,5.73-1.22,2.31-5.07a3.51,3.51,0,0,0,1.43-5.06s4-3.09,1.66-5c0,0,3.52-2.65,1.76-4.3,0,0,3.31-2.09,1.54-4.62,0,0,5.29-2.76,2.21-6.39,0,0,2.86-2.53-.22-4.19,0,0,3.64-3.19-.88-5.5a4.61,4.61,0,0,0-.78-2.87s-23,20.05-25.57,24c0,0-5.62,4.85-5.73,9.58a33.55,33.55,0,0,1-8.6,7.6s-4.19,2.1-5.62-1.1a6.49,6.49,0,0,1,.11-2.53C87.4,83,85.53,77,80.13,76.4c0,0-3.64-.66-5.29,1.21,0,0-1.1.94-1.1,1.54A2.64,2.64,0,0,1,73.29,82a5.29,5.29,0,0,0,1.49.82c1,.39,1.38,1.21,1.1,2.53s-2.31,4.14-1.65,7.77c0,0-3.69-.66-8.1-5.18,0,0-2.64-2.86-8.38-3.74s-12.45-3.3-17.3-8.59Z" transform="translate(8.9 13.52)"/><path class="g" d="M40,76.62s-.78,3,3.08,5c0,0-2.09,2.64,2.54,4.4,0,0-1.1,2,3.41,3.09l1.88.66s-2.32,1.87,2.64,2.42c0,0-.55,2.09,2.54,3,0,0-.33,2.09,3.09,2.65,0,0-1.55,1.87,2.2,1.87,0,0-1.1,1.32,2.2,2,0,0-.77,1.65,1.33,2.31,0,0-2.1,4.08,1,5.73a2.75,2.75,0,0,0,2.2,3.64s-.66,3.08,4,3.85l33.73-.22s-1.54-4.19,2.21-4.19c0,0,3.3.33,3.08-1,0,0,4,.77,3.09-3,0,0,4.63-1.21,1.65-3.42,0,0,4.19.23,2.43-2.86,0,0,3.41.22,2-4,0,0,4.08.22,2-4.08,0,0,4.52-.44,1.22-4.51,0,0,5.73-1.22,2.31-5.07a3.51,3.51,0,0,0,1.43-5.06s4-3.09,1.66-5c0,0,3.52-2.65,1.76-4.3,0,0,3.31-2.09,1.54-4.62,0,0,5.29-2.76,2.21-6.39,0,0,2.86-2.53-.22-4.19,0,0,3.64-3.19-.88-5.5a4.61,4.61,0,0,0-.78-2.87s-23,20.05-25.57,24c0,0-5.62,4.85-5.73,9.58a33.55,33.55,0,0,1-8.6,7.6s-4.19,2.1-5.62-1.1a6.49,6.49,0,0,1,.11-2.53C87.4,83,85.53,77,80.13,76.4c0,0-3.64-.66-5.29,1.21,0,0-1.1.94-1.1,1.54A2.64,2.64,0,0,1,73.29,82a5.29,5.29,0,0,0,1.49.82c1,.39,1.38,1.21,1.1,2.53s-2.31,4.14-1.65,7.77c0,0-3.69-.66-8.1-5.18,0,0-2.64-2.86-8.38-3.74s-12.45-3.3-17.3-8.59Z" transform="translate(8.9 13.52)"/><path class="f" d="M73.66,79.2s-3.26-.06-4.21.79a22.31,22.31,0,0,1,4.26.79s-2,0-3.26,0a7.2,7.2,0,0,0,2.79,1.16s.89-.74.42-2.74" transform="translate(8.9 13.52)"/><path class="g" d="M73.66,79.2s-3.26-.06-4.21.79a22.31,22.31,0,0,1,4.26.79s-2,0-3.26,0a7.2,7.2,0,0,0,2.79,1.16S74.13,81.2,73.66,79.2Z" transform="translate(8.9 13.52)"/><path class="h" d="M66.6,85.45s7.06-8.72,9.71-12.69,5.3-7,6.29-6.18,2,1.66-5.85,9.27L67.81,86.11s-2.21.67-1.21-.66" transform="translate(8.9 13.52)"/><path class="f" d="M73.68,80.76s-2,0-3.17,0a7,7,0,0,0,2.71,1.13,2,2,0,0,0,.54-1.43" transform="translate(8.9 13.52)"/><path class="g" d="M73.68,80.76s-2,0-3.17,0a7,7,0,0,0,2.71,1.13,2,2,0,0,0,.54-1.43" transform="translate(8.9 13.52)"/><path class="h" d="M77.57,79.58s.08.16.62,0,.82-.7,1.36-.2a1.32,1.32,0,0,0,1.24.25s-1.07.24-1.16.45-.82.33-1.24-.08c0,0,0-.21-.82-.37" transform="translate(8.9 13.52)"/><path class="g" d="M132.48,46.93s1.21,2.76-1.65,5.4-24.64,22.49-25.74,24.36-3.42,2.21-3.42,3.42,1.65,2,4.18.55c0,0-4.62,3.64-.1,4.08,0,0-4.84,2.86,0,4,0,0-5.29,3,.1,4,0,0-4.51-.67-3,2.31,0,0-4.29.77-2.2,4.3,0,0-3.08-.88-3,2a3.81,3.81,0,0,0,.55,3s-1.54-3.53-1.21-5,.77-2.87-.22-2.87-2.09,1-2.86,1-1-2-1-2" transform="translate(8.9 13.52)"/><path class="h" d="M99.87,84.43s-6.73,7.29-10.48,6.4c0,0-1.7,1.22.33,1.77s8-2.21,10.15-8.17" transform="translate(8.9 13.52)"/><path class="g" d="M75.06,87.42s-3.42,9,4.63,19.18a49,49,0,0,1,3.64,4.85M62.16,85.32s-2.86,2.87-.44,3.75,6.18.66,7.5,3.86A5.59,5.59,0,0,1,69,97a2.18,2.18,0,0,0,2.09,1.65c1.88.22,4.19,1.54-.11,4,0,0,3.42-3.31,4.08-3s.77,3.75-3.42,5.62c0,0,4.08-4.08,5-3s.33,2.53-2.75,5,0,.44,0,.44,3.63-4.08,4.63-2.65-1.66,3-3.42,5c0,0,3.86-4.3,5-2.64s-.88,3.3-2.42,4.41c0,0,3.19-3.2,4.19-2.1s.66,1.77.66,1.77M46.4,80.58s2.32,5.85,13.67,6.62c0,0,.22,2.64-7.27.33,0,0-2.32-.44-2,.22s7.83.88,9.92,1.76-1.43,2.32-7.38,1c0,0,8,.34,7.27,1a20.55,20.55,0,0,1-3.75,1.76s4.19-2.1,5-1.43-.55,2.53-4.29,4.63c0,0,5.84-4.19,6.28-3.31s-3,4.63-3,4.63,4.08-4.41,4.41-3.53a3.72,3.72,0,0,1-.44,4.41,5.35,5.35,0,0,1,3.64-1c1.87.33,1.65,2.09-2.43,3.64,0,0,3.09-2.1,3.75-.22s-3.86,3.52-3.86,3.52,4.52-3.52,5.29-.55c0,0,.44,1.54-4,1.77,0,0,9.91-1.66,1.54,4.18,0,0,4-4,5.07-2.31s-3.53,4.85-3.53,4.85,3.75-3.42,4.74-2.54-.44,3.64-.44,3.64m59.74-54.12s-.22-.88-2.65.89S106,78.6,106,78.6m-7.82,25.68s1,3.75,2.31,3.75,1.32-1.43,1.32-1.43-1.54,3.41,0,4.18,2.43-2.53,2.43-2.53,1,4,3.2,4.52,5.5,0,1.1-3.53c0,0,1.65,2.76,4.3,2.21s2.42-3.31-3.42-5.85c0,0,4,3.2,5.84,2.54s2.76-1.87-6.17-6.61c0,0,6.72,4.52,8.71,3.85s1.54-3.41-7.61-6.06c0,0,6.39,2.1,8.27,3.64,0,0,5-3.09-.55-5.18s-4.19-2.43-4.19-2.43,6,5.1,8,2.87c3.09-3.42,1.33-3.75-7.82-6.61,0,0,7.6,3,9.15,2.53s3-4.3-3.31-5-5.62-.77-5.62-.77,7.49.88,9.48,1.1,4.74-3.41,1.32-4.85c0,0-6.5.88-9.48,1,0,0,9.81-.11,11.35-2s1-4.19-1-3.75S115.51,83,112.31,83.45c0,0,13.78-2.54,15.65-4.3s2.54-4.19.34-4.08-15.65,5.4-15.65,5.4,6.94-3.85,10.25-5.73,8.37-3.85,9.36-6.17-.66-2.87-1.21-2.31-11.46,8.59-15.21,10.36l-6,1.87s7.82-2.31,2.42,2.09c0,0,5.52,0-1.1,3.2,0,0,3.53-1,2.87,1.1s-2.43,2.1-5.18,1.44c0,0,2.64.55,1.43,2.09l-.88,1.43m24.69-34.5S110.22,74,108.68,74.85s-4.41,4.85-2.32,6.06l1.66.89s-3.86,2.64.88,4.52c0,0-3.53,2.09.55,3.52,0,0-1.48,2,.66,2.65a8.14,8.14,0,0,1-4.3.22c-2.86-.44-.44.11-.44.11s5.29.44,5.18,3.64-6.83-.78-7.71-1.44a21.71,21.71,0,0,0,6.5,3.2s1.1.33.88,1.1-3.64,2.1-8.6-1.76a12.76,12.76,0,0,0,6.51,3s1,.56-.11,2.43-4,1.54-7.39-3.64a18.28,18.28,0,0,0,5.62,5.18,2.88,2.88,0,0,1-3.41,2.21c-2.87-.44-3.09-5.84-3.09-5.84" transform="translate(8.9 13.52)"/><path class="h" d="M97.89,111.36a6.78,6.78,0,0,0-5.63-4.74c-4.53-.56-6.73,1.87-6.73,5.07l3,2s-.45-5.52,3.2-5.85c0,0,3.09.11,3.2,2.1,0,0-4.31-.56-4.75.88,0,0,4.86-.33,4.64,1,0,0,2.76.11,3.09-.44" transform="translate(8.9 13.52)"/><path class="i" d="M94.45,155.09c.28-.13,8.65-4,22.19-3.19s29.57.24,29.57.24l-11.64-31.72c-11.75.12-40-4.49-40-4.49l-.68,0s-28.26,4.62-40,4.5L42.21,152.12s16,.59,29.57-.24,21.69,2.88,22.09,3.08l.4.25Z" transform="translate(8.9 13.52)"/><path class="j" d="M94.45,155.09c.28-.13,8.65-4,22.19-3.19s29.57.24,29.57.24l-11.64-31.72c-11.75.12-40-4.49-40-4.49l-.68,0s-28.26,4.62-40,4.5L42.21,152.12s16,.59,29.57-.24,21.69,2.88,22.09,3.08l.4.25Z" transform="translate(8.9 13.52)"/><path class="f" d="M93.91,151.38c-9.08-11.52-23.32-6-29.73-3.48S48.5,149,48.5,149a9.08,9.08,0,0,1,1.42-3c2.14-4.26,9.27-26.77,9.27-26.77a41.54,41.54,0,0,0,15.5-4.61c7.3-4.08,14.61-4.61,19.42,0l.11.09.09-.07c4.81-4.61,12.12-4.08,19.42,0a41.32,41.32,0,0,0,15.5,4.61s7.13,22.51,9.26,26.77a9.12,9.12,0,0,1,1.43,3s-9.26,1.42-15.68-1.06-20.48-8-29.57,3.49l-.34.51Z" transform="translate(8.9 13.52)"/><path class="j" d="M93.91,151.38c-9.08-11.52-23.32-6-29.73-3.48S48.5,149,48.5,149a9.08,9.08,0,0,1,1.42-3c2.14-4.26,9.27-26.77,9.27-26.77a41.54,41.54,0,0,0,15.5-4.61c7.3-4.08,14.61-4.61,19.42,0l.11.09.09-.07c4.81-4.61,12.12-4.08,19.42,0a41.32,41.32,0,0,0,15.5,4.61s7.13,22.51,9.26,26.77a9.12,9.12,0,0,1,1.43,3s-9.26,1.42-15.68-1.06-20.48-8-29.57,3.49l-.34.51Z" transform="translate(8.9 13.52)"/><path class="k" d="M94.49,145.26c6.5-10.17,23.61-3.68,23.61-3.68,14.34,4.68,13.62,3.09,13.62,3.09l-8.37-23.33c-8.19-.89-8.13-2.41-15.85-5.39a12.14,12.14,0,0,0-12.83,2.65l-.47.42-.45-.44a12.14,12.14,0,0,0-12.83-2.66c-7.72,3-7.66,4.51-15.85,5.4l-8.38,23.33s-.71,1.59,13.63-3.09c0,0,17.11-6.43,23.61,3.74l.28.38Z" transform="translate(8.9 13.52)"/><path class="j" d="M94.49,145.26c6.5-10.17,23.61-3.68,23.61-3.68,14.34,4.68,13.62,3.09,13.62,3.09l-8.37-23.33c-8.19-.89-8.13-2.41-15.85-5.39a12.14,12.14,0,0,0-12.83,2.65l-.47.42-.45-.44a12.14,12.14,0,0,0-12.83-2.66c-7.72,3-7.66,4.51-15.85,5.4l-8.38,23.33s-.71,1.59,13.63-3.09c0,0,17.11-6.43,23.61,3.74l.28.38Z" transform="translate(8.9 13.52)"/><line class="j" x1="103.3" y1="131.95" x2="103.3" y2="158.99"/><path class="b" d="M26,173.14a21.77,21.77,0,0,1-22.32-.7l12-9.66L4.36,151.25s13,6.83,22.38.94,15.42-1.94,15.07,1.24-.71,9.89-.71,9.89-10.06-.51-14.48-5.13Z" transform="translate(8.9 13.52)"/><path class="l" d="M26,173.14a21.77,21.77,0,0,1-22.32-.7l12-9.66L4.36,151.25s13,6.83,22.38.94,15.42-1.94,15.07,1.24-.71,9.89-.71,9.89-10.06-.51-14.48-5.13Z" transform="translate(8.9 13.52)"/><path class="b" d="M94.26,177.44c-11.59-.11-25.29.69-44.73,5.82S26,180.07,26,180.07l.89-21.73c4.46,4.62,14.62,5.12,14.62,5.12l.85,0c9.11.06,18.74-2.21,27-4.47a86.75,86.75,0,0,1,24.81-3.15,102,102,0,0,1,15,1c7.26,1.12,9.87,2.12,16.17,3.71s15.33,3.25,22.88,2.83c7.12-.39,11.94-3.29,13.37-4.75.09-.09.35-.31.35-.31l.77,21.79s-3.61,7.61-21,3.83-22.23-6.18-47.45-6.46" transform="translate(8.9 13.52)"/><path class="l" d="M94.26,177.44c-11.59-.11-25.29.69-44.73,5.82S26,180.07,26,180.07l.89-21.73c4.46,4.62,14.62,5.12,14.62,5.12l.85,0c9.11.06,18.74-2.21,27-4.47a86.75,86.75,0,0,1,24.81-3.15,102,102,0,0,1,15,1c7.26,1.12,9.87,2.12,16.17,3.71s15.33,3.25,22.88,2.83c7.12-.39,11.94-3.29,13.37-4.75.09-.09.35-.31.35-.31l.77,21.79s-3.61,7.61-21,3.83S119.48,177.72,94.26,177.44Z" transform="translate(8.9 13.52)"/><path class="b" d="M162.7,173.14a21.78,21.78,0,0,0,22.32-.7l-12-9.66,11.3-11.53s-12.95,6.83-22.37.94-15.43-1.94-15.08,1.24.71,9.89.71,9.89,10.07-.51,14.48-5.13Z" transform="translate(8.9 13.52)"/><path class="l" d="M162.7,173.14a21.78,21.78,0,0,0,22.32-.7l-12-9.66,11.3-11.53s-12.95,6.83-22.37.94-15.43-1.94-15.08,1.24.71,9.89.71,9.89,10.07-.51,14.48-5.13Z" transform="translate(8.9 13.52)"/><path class="l" d="M161.88,158.58a3.4,3.4,0,0,0-2.25-4c-5.49-1.94-8,2.54-11.37.48-1.71-1.05-1.3-2.49-1.3-3.18M26.8,158.58a3.4,3.4,0,0,1,2.25-4c5.49-1.94,8,2.54,11.36.48,1.71-1.05,1.31-2.49,1.31-3.18" transform="translate(8.9 13.52)"/><polygon class="h" points="41.49 191.31 41.24 186.2 42.28 186.15 42.37 188.16 44.4 188.06 44.3 186.05 45.33 186 45.57 191.12 44.54 191.16 44.44 188.93 42.41 189.03 42.52 191.26 41.49 191.31"/><polygon class="h" points="46.63 191.02 46.01 185.94 49.78 185.48 49.88 186.34 47.14 186.67 47.28 187.8 49.83 187.49 49.93 188.34 47.38 188.65 47.55 190.04 50.39 189.69 50.49 190.55 46.63 191.02"/><path class="h" d="M44.77,174.4l-1-1.73-.34,2ZM47,176.05l-1.1.21-.66-1.07-2,.37-.2,1.23L42,177l1-5.39,1.08-.2Z" transform="translate(8.9 13.52)"/><path class="h" d="M47.54,171.54l.8,3.3.75-.19a2.65,2.65,0,0,0,.6-.19.88.88,0,0,0,.35-.31,1,1,0,0,0,.15-.54,3.69,3.69,0,0,0-.12-.94,2.94,2.94,0,0,0-.32-.86,1.31,1.31,0,0,0-.4-.41,1.11,1.11,0,0,0-.52-.12,4.35,4.35,0,0,0-.84.15ZM46.33,171l1.83-.45a3.85,3.85,0,0,1,1-.14,1.75,1.75,0,0,1,.86.28,2.33,2.33,0,0,1,.67.69,4.15,4.15,0,0,1,.45,1.13,3.36,3.36,0,0,1,.1,1.1,2.27,2.27,0,0,1-.31,1,2,2,0,0,1-.61.57,3.41,3.41,0,0,1-.87.32l-1.89.46Z" transform="translate(8.9 13.52)"/><path class="h" d="M51.81,173.15l.94-.38a1.25,1.25,0,0,0,.56.61,1.12,1.12,0,0,0,.79,0,1.09,1.09,0,0,0,.66-.42.6.6,0,0,0,.1-.54.45.45,0,0,0-.19-.27.86.86,0,0,0-.42-.1c-.12,0-.41,0-.85,0a2.89,2.89,0,0,1-1.27-.16,1.33,1.33,0,0,1-.74-.85,1.44,1.44,0,0,1,0-.77,1.4,1.4,0,0,1,.47-.67,2.43,2.43,0,0,1,.91-.46,2.19,2.19,0,0,1,1.52,0,1.5,1.5,0,0,1,.81.94l-1,.33a.9.9,0,0,0-.44-.46,1,1,0,0,0-.67,0,1.21,1.21,0,0,0-.63.38.37.37,0,0,0-.06.35.39.39,0,0,0,.23.26,3,3,0,0,0,1,.05,5,5,0,0,1,1.17,0,1.33,1.33,0,0,1,.69.34,1.44,1.44,0,0,1,.43.72,1.4,1.4,0,0,1,0,.86,1.43,1.43,0,0,1-.5.74,2.89,2.89,0,0,1-1,.5,2.24,2.24,0,0,1-1.56,0,1.91,1.91,0,0,1-1-1.07" transform="translate(8.9 13.52)"/><path class="h" d="M59.48,170.26l.32,1.33.93-.22a6.21,6.21,0,0,0,.68-.19.65.65,0,0,0,.32-.29.72.72,0,0,0-.16-.81.59.59,0,0,0-.37-.15,3.15,3.15,0,0,0-.9.14Zm-.47-2,.27,1.15.66-.16.73-.19a.66.66,0,0,0,.36-.28.5.5,0,0,0,.06-.42.58.58,0,0,0-.22-.35.63.63,0,0,0-.42-.08,8.37,8.37,0,0,0-.86.19Zm-1.2-.59,2-.48a7.52,7.52,0,0,1,.89-.16,1.36,1.36,0,0,1,.57.08,1.48,1.48,0,0,1,.48.33A1.18,1.18,0,0,1,62,168a1.19,1.19,0,0,1-.44,1.25,1.36,1.36,0,0,1,.81.28,1.23,1.23,0,0,1,.42.69,1.38,1.38,0,0,1,0,.7,1.3,1.3,0,0,1-.31.62,1.4,1.4,0,0,1-.61.39c-.17.06-.57.17-1.21.33l-1.69.4Z" transform="translate(8.9 13.52)"/><path class="h" d="M63.15,166.47l1-.18.47,2.73a5.53,5.53,0,0,0,.19.84.81.81,0,0,0,.39.44,1.16,1.16,0,0,0,.71.08,1,1,0,0,0,.62-.3.68.68,0,0,0,.19-.48,5.58,5.58,0,0,0-.1-.86L66.15,166l1-.18.46,2.65a6.68,6.68,0,0,1,.14,1.3,1.35,1.35,0,0,1-.19.68,1.61,1.61,0,0,1-.52.52,2.77,2.77,0,0,1-1,.32,2.83,2.83,0,0,1-1.12,0,1.68,1.68,0,0,1-.67-.33,1.42,1.42,0,0,1-.38-.51,6.07,6.07,0,0,1-.32-1.26Z" transform="translate(8.9 13.52)"/><polygon class="h" points="79.17 184.03 78.63 179.82 77.12 180.01 77.01 179.16 81.04 178.63 81.16 179.49 79.65 179.69 80.2 183.9 79.17 184.03"/><polygon class="h" points="84.33 183.44 83.92 178.34 84.92 178.25 87.28 181.49 87.01 178.08 87.96 178 88.38 183.1 87.35 183.19 85.02 180.03 85.29 183.36 84.33 183.44"/><path class="h" d="M81.3,166.91a1.92,1.92,0,0,0,.47,1.29,1.37,1.37,0,0,0,2-.1,1.94,1.94,0,0,0,.33-1.35,1.91,1.91,0,0,0-.45-1.29,1.3,1.3,0,0,0-1.05-.38,1.32,1.32,0,0,0-1,.49,2,2,0,0,0-.32,1.34m-1.06.08a3.14,3.14,0,0,1,.17-1.32,2.45,2.45,0,0,1,.44-.72,1.93,1.93,0,0,1,.63-.49,2.7,2.7,0,0,1,1.1-.26,2.38,2.38,0,0,1,1.84.61,3.11,3.11,0,0,1,.2,3.88,2.37,2.37,0,0,1-1.76.79,2.41,2.41,0,0,1-1.85-.61,2.63,2.63,0,0,1-.77-1.88" transform="translate(8.9 13.52)"/><polygon class="h" points="96.19 182.74 96.09 178.49 94.57 178.53 94.55 177.66 98.62 177.57 98.64 178.43 97.12 178.47 97.22 182.72 96.19 182.74"/><polygon class="h" points="102.55 182.68 102.58 178.43 101.07 178.42 101.08 177.55 105.14 177.59 105.13 178.45 103.62 178.44 103.58 182.69 102.55 182.68"/><path class="h" d="M99.09,167.25l-.64-1.92-.75,1.88Zm1.84,2.09-1.12,0-.41-1.18-2.05-.06-.46,1.14-1.09,0,2.16-5,1.09,0Z" transform="translate(8.9 13.52)"/><polygon class="h" points="110.35 182.9 111.38 182.96 111.66 177.85 110.62 177.79 110.35 182.9"/><polygon class="h" points="112.4 183.01 112.78 177.95 113.81 178.03 113.5 182.23 116.06 182.42 115.99 183.28 112.4 183.01"/><path class="h" d="M107.75,168.14h1a1.26,1.26,0,0,0,.28.78,1.15,1.15,0,0,0,.72.32,1.19,1.19,0,0,0,.77-.13.65.65,0,0,0,.31-.46.44.44,0,0,0-.08-.32.74.74,0,0,0-.34-.26c-.12-.06-.38-.16-.8-.32a2.67,2.67,0,0,1-1.1-.63,1.33,1.33,0,0,1-.06-1.77,1.39,1.39,0,0,1,.69-.45,2.57,2.57,0,0,1,1-.07,2.19,2.19,0,0,1,1.4.58,1.49,1.49,0,0,1,.38,1.18l-1-.07a.8.8,0,0,0-.22-.59,1,1,0,0,0-.63-.25,1.22,1.22,0,0,0-.72.11.37.37,0,0,0-.2.3.39.39,0,0,0,.12.32,2.71,2.71,0,0,0,.91.45,4.46,4.46,0,0,1,1.06.49,1.39,1.39,0,0,1,.51.57,1.52,1.52,0,0,1,.11.84,1.49,1.49,0,0,1-.33.79,1.43,1.43,0,0,1-.75.49,2.9,2.9,0,0,1-1.13.06,2.23,2.23,0,0,1-1.43-.6,2,2,0,0,1-.47-1.37" transform="translate(8.9 13.52)"/><path class="h" d="M117.13,167.46l-.64,3.33.76.14a3,3,0,0,0,.62.07.88.88,0,0,0,.45-.13,1.07,1.07,0,0,0,.36-.43,3.39,3.39,0,0,0,.28-.91,2.82,2.82,0,0,0,.07-.91,1.2,1.2,0,0,0-.2-.54,1,1,0,0,0-.42-.33,4.75,4.75,0,0,0-.82-.21Zm-.85-1.05,1.85.36a3.55,3.55,0,0,1,.94.28,1.69,1.69,0,0,1,.67.6,2.11,2.11,0,0,1,.32.91,3.73,3.73,0,0,1-.06,1.22,3.43,3.43,0,0,1-.36,1,2.16,2.16,0,0,1-.71.78,1.76,1.76,0,0,1-.79.27,3.09,3.09,0,0,1-.91-.07l-1.91-.36Z" transform="translate(8.9 13.52)"/><polygon class="h" points="129.27 186.01 130.41 181.02 134.11 181.86 133.92 182.71 131.22 182.09 130.97 183.2 133.48 183.77 133.28 184.61 130.78 184.04 130.47 185.4 133.26 186.03 133.07 186.87 129.27 186.01"/><path class="h" d="M126.09,168.54l1,.22-.58,2.71a5.68,5.68,0,0,0-.14.84.87.87,0,0,0,.2.56,1.12,1.12,0,0,0,.63.33,1,1,0,0,0,.68,0,.68.68,0,0,0,.36-.37,6.29,6.29,0,0,0,.23-.84l.59-2.77,1,.22-.56,2.62a6.67,6.67,0,0,1-.36,1.26,1.38,1.38,0,0,1-.44.56,1.41,1.41,0,0,1-.67.28,2.7,2.7,0,0,1-1-.05,3,3,0,0,1-1-.4,1.57,1.57,0,0,1-.49-.55,1.48,1.48,0,0,1-.17-.62,6.67,6.67,0,0,1,.18-1.29Z" transform="translate(8.9 13.52)"/><polygon class="h" points="140.11 188.36 140.92 184.19 139.43 183.9 139.6 183.05 143.59 183.83 143.42 184.68 141.94 184.39 141.12 188.56 140.11 188.36"/><path class="h" d="M139.52,175.33l-.13.9-3.4-.5a2.24,2.24,0,0,1,.47-.92,6.57,6.57,0,0,1,1.27-1.05,7.56,7.56,0,0,0,.93-.71,1.15,1.15,0,0,0,.29-.57.68.68,0,0,0-.1-.52.64.64,0,0,0-.46-.25.67.67,0,0,0-.51.11,1,1,0,0,0-.3.58l-1-.24a1.58,1.58,0,0,1,.72-1.07,1.79,1.79,0,0,1,1.19-.18,1.66,1.66,0,0,1,1.11.58,1.32,1.32,0,0,1,.28,1.07,1.64,1.64,0,0,1-.22.63,2.49,2.49,0,0,1-.48.59,5.79,5.79,0,0,1-.73.55c-.35.24-.57.39-.67.48a1.29,1.29,0,0,0-.23.24Z" transform="translate(8.9 13.52)"/><path class="h" d="M141.44,172.69a.66.66,0,0,0,.13.47.56.56,0,0,0,.42.2.59.59,0,0,0,.46-.12.64.64,0,0,0,.21-.44.6.6,0,0,0-.12-.46.56.56,0,0,0-.42-.2.57.57,0,0,0-.68.55m-.29,2.17a.89.89,0,0,0,.14.65.67.67,0,0,0,.5.27.65.65,0,0,0,.52-.16,1,1,0,0,0,.26-.61.85.85,0,0,0-.15-.6.68.68,0,0,0-.49-.26.64.64,0,0,0-.56.19.89.89,0,0,0-.22.52m0-1.21a1.08,1.08,0,0,1-.62-1.12,1.23,1.23,0,0,1,.48-.9,1.61,1.61,0,0,1,1.17-.27,1.63,1.63,0,0,1,1.09.48,1.2,1.2,0,0,1,.31,1,1.07,1.07,0,0,1-.24.61,1.17,1.17,0,0,1-.56.38,1.4,1.4,0,0,1,.6.55,1.31,1.31,0,0,1,.15.78,1.54,1.54,0,0,1-.56,1.11,1.66,1.66,0,0,1-1.24.32,1.79,1.79,0,0,1-1.12-.47,1.52,1.52,0,0,1-.16-2,1.34,1.34,0,0,1,.7-.48" transform="translate(8.9 13.52)"/><path class="h" d="M144.4,176.67l1,0,0-1-1,0Zm.08-2.72,1,0,0-1-1,0Z" transform="translate(8.9 13.52)"/><path class="h" d="M148.9,176.6l-1,.06L147.7,173a3.25,3.25,0,0,1-1.22.82l0-.89a3,3,0,0,0,.81-.53,1.79,1.79,0,0,0,.56-.85l.8-.05Z" transform="translate(8.9 13.52)"/><path class="h" d="M150,175.16l.91-.31a.93.93,0,0,0,.35.49.7.7,0,0,0,1-.24.93.93,0,0,0,.07-.65.81.81,0,0,0-.31-.53.66.66,0,0,0-.52-.12,1.59,1.59,0,0,0-.43.17l-.06-.8a.87.87,0,0,0,.56-.3.63.63,0,0,0,.11-.52.58.58,0,0,0-.24-.37.56.56,0,0,0-.43-.07.6.6,0,0,0-.38.26.79.79,0,0,0-.11.55l-.92,0a2,2,0,0,1,.13-.78,1.23,1.23,0,0,1,.43-.54,1.69,1.69,0,0,1,.71-.31,1.53,1.53,0,0,1,1.23.21,1.22,1.22,0,0,1,.53.76,1.19,1.19,0,0,1-.5,1.2,1.26,1.26,0,0,1,.77.27,1.2,1.2,0,0,1,.42.72,1.5,1.5,0,0,1-.24,1.23,1.82,1.82,0,0,1-2.31.56,1.61,1.61,0,0,1-.74-.91" transform="translate(8.9 13.52)"/><path class="h" d="M112.28,170l.39-.95,1,.4-.39.94a1.79,1.79,0,0,1-.54.77,1.26,1.26,0,0,1-.79.25l-.08-.45a.81.81,0,0,0,.53-.18,1.54,1.54,0,0,0,.4-.58Z" transform="translate(8.9 13.52)"/><path class="m" d="M160.19,106.48l1.94.27.75-5.4,9.48,1.33.3-2.18-11.42-1.6Zm10.09-16.15a2.91,2.91,0,0,1,.07,4.36,5.84,5.84,0,0,1-6,0,2.8,2.8,0,0,1-.05-4.31,5.78,5.78,0,0,1,6-.1m-7.46-1.57a5,5,0,0,0-1.53,3.88,4.89,4.89,0,0,0,1.63,3.8,7.55,7.55,0,0,0,8.84-.12,5,5,0,0,0,1.55-3.87,5.83,5.83,0,0,0-.49-2.33,4.23,4.23,0,0,0-1.07-1.39,5.53,5.53,0,0,0-1.6-1,7.82,7.82,0,0,0-3-.45,6.22,6.22,0,0,0-4.34,1.48M169,78a2.9,2.9,0,0,1,.71,4.3,5.88,5.88,0,0,1-5.93,1,2.64,2.64,0,0,1-1.35-2,2.7,2.7,0,0,1,.66-2.3A5.75,5.75,0,0,1,169,78m-7.61-.42a4.93,4.93,0,0,0-.94,4.06,4.88,4.88,0,0,0,2.19,3.51,7.51,7.51,0,0,0,8.71-1.46,4.9,4.9,0,0,0,1-4,5.65,5.65,0,0,0-.83-2.24,4.3,4.3,0,0,0-1.26-1.21,5.48,5.48,0,0,0-1.74-.74,8,8,0,0,0-3,0,6.26,6.26,0,0,0-4.07,2.13m-3.84-8.41,4.83-1.58,1.31,4.1-4.84,1.57.67,2.09,11.06-3.6-.67-2.09-4.35,1.42L164.26,67l4.36-1.41L168,63.5l-11.06,3.6Zm-.26-6.95a2.07,2.07,0,0,1-1.19-1.08,2.36,2.36,0,0,1,0-2.15,5.24,5.24,0,0,1,2.49-2.07,4.78,4.78,0,0,1,3-.66,2.39,2.39,0,0,1,1.69,1.34,2.25,2.25,0,0,1,.18,1.56,2.44,2.44,0,0,1-.93,1.36l1.45,1.7a4.59,4.59,0,0,0,1.43-2,4.34,4.34,0,0,0-.28-3.47,4.62,4.62,0,0,0-3.06-2.58,6.57,6.57,0,0,0-4.65.76,6.31,6.31,0,0,0-3.27,3.18,4.5,4.5,0,0,0,.14,3.89,4.36,4.36,0,0,0,2.09,2.18,5.13,5.13,0,0,0,3.25.2l-.29-2.23a3.54,3.54,0,0,1-2.07,0M148.37,50.3a4.55,4.55,0,0,0,.94,3.19,5.66,5.66,0,0,0,1.68,1.7,3.09,3.09,0,0,0,1.89.47,3.55,3.55,0,0,0,1.83-.65A3.6,3.6,0,0,0,156,53.6a3.19,3.19,0,0,0,.3-1.67,10.2,10.2,0,0,0-.64-2.43,5.44,5.44,0,0,1-.49-2.1.94.94,0,0,1,.39-.68.87.87,0,0,1,.79-.12,2.32,2.32,0,0,1,1.19,1A2.12,2.12,0,0,1,158,49a2.05,2.05,0,0,1-.72,1.24l1.32,1.74a3.52,3.52,0,0,0,1.49-2.36,4.35,4.35,0,0,0-.94-3.08A4.94,4.94,0,0,0,157.61,45a2.94,2.94,0,0,0-1.73-.45,3.27,3.27,0,0,0-3,2.73,5.74,5.74,0,0,0,.45,2.7q.46,1.34.57,1.74a1.73,1.73,0,0,1,0,.93,1.08,1.08,0,0,1-.45.59,1.4,1.4,0,0,1-1.22.2,2.72,2.72,0,0,1-1.75-2.66,3,3,0,0,1,1-1.61l-1.39-1.63a4.63,4.63,0,0,0-1.7,2.79m-8.86-8.54,3.57-3.66,3,3-3.56,3.66,1.55,1.53L152.25,38l-1.55-1.54-3.21,3.29-3-3,3.2-3.3-1.55-1.54L138,40.23Zm-1.84-7.23-.84,1.22a4.67,4.67,0,0,1-1.37-.1,3.55,3.55,0,0,1-1.29-.55A2.79,2.79,0,0,1,132.94,33,4.92,4.92,0,0,1,134,29.89,4.35,4.35,0,0,1,136.36,28a2.84,2.84,0,0,1,2.42.5,2.5,2.5,0,0,1,1,1.32,2.55,2.55,0,0,1-.07,1.61l2,.89a4.21,4.21,0,0,0,.25-2.92,4.9,4.9,0,0,0-2.05-2.56,5.2,5.2,0,0,0-2.44-1,4.85,4.85,0,0,0-2.93.6,7.23,7.23,0,0,0-2.43,2.27,7.82,7.82,0,0,0-1.25,2.92,4.87,4.87,0,0,0,.29,2.91,5.68,5.68,0,0,0,2,2.33,6.8,6.8,0,0,0,2.46,1.07A5.81,5.81,0,0,0,138,38l2.65-3.83-3.85-2.71-1.12,1.62Zm-9.79-1.37,5.7-10.23-1.89-1.08L126,32.08Zm-9-4.46,2.05-4.7,3.9,1.73-2,4.7,2,.89,4.68-10.75-2-.88-1.84,4.23-3.9-1.74L123.57,18l-2-.89-4.69,10.74ZM105.73,25l1.43-7.52L110,25.83l2.14.41,2.2-11.52-2-.39L110.88,22,108,13.49l-2.07-.4-2.21,11.52Zm-9.15-5.59,1.62-4.29,1.31,4.41Zm2.89-7-2.29-.09L92.54,23.9l2.31.09,1-2.63,4.3.17.83,2.7,2.37.09ZM92.32,24l-.45-11.72-2.17.08.45,11.73Zm-5.93.42L85,14.81l3.16-.45-.28-2L79.45,13.6l.28,2,3.16-.45,1.35,9.65Zm-13,2a4.41,4.41,0,0,0,3.3.16,5.7,5.7,0,0,0,2.14-1,3.28,3.28,0,0,0,1.07-1.65,3.72,3.72,0,0,0,0-2,3.64,3.64,0,0,0-.9-1.69,3.16,3.16,0,0,0-1.46-.84A10.1,10.1,0,0,0,75,19.24,5.34,5.34,0,0,1,72.9,19a.91.91,0,0,1-.5-.6.88.88,0,0,1,.14-.79,2.42,2.42,0,0,1,1.32-.81,1.71,1.71,0,0,1,2.35,1.12l2.07-.68A3.51,3.51,0,0,0,76.57,15a4.29,4.29,0,0,0-3.2-.12,5,5,0,0,0-1.93.95,3,3,0,0,0-1,1.51,3.21,3.21,0,0,0,0,1.74,3.12,3.12,0,0,0,1.57,2,5.56,5.56,0,0,0,2.67.47c.93,0,1.54,0,1.81,0a1.8,1.8,0,0,1,.89.28,1.18,1.18,0,0,1,.4.62,1.51,1.51,0,0,1-.22,1.24,2.31,2.31,0,0,1-1.4.88,2.21,2.21,0,0,1-1.66-.1,2.91,2.91,0,0,1-1.2-1.44l-2,.78a4.65,4.65,0,0,0,2,2.54M71.63,28,67.48,17l-2,.78,4.15,11Zm-13.48-4.6,1.52-.77a13.75,13.75,0,0,1,1.43-.68A1.31,1.31,0,0,1,62,22a1.44,1.44,0,0,1,.68.73,1.65,1.65,0,0,1,.2.88,1.2,1.2,0,0,1-.33.72,7.83,7.83,0,0,1-1.68,1L59.47,26Zm4.32,8.72L60.3,27.7l.39-.2a3.35,3.35,0,0,1,1-.37,1.58,1.58,0,0,1,.8.14,15.35,15.35,0,0,1,1.79,1l2.54,1.57,2.32-1.17L67,27.24A13.31,13.31,0,0,0,65,26.1a5.26,5.26,0,0,0-1.48-.36A3.35,3.35,0,0,0,65,23.81a3.3,3.3,0,0,0-.33-2.27,3.58,3.58,0,0,0-1.24-1.44,2.57,2.57,0,0,0-1.62-.45,7.55,7.55,0,0,0-2.38.85l-4.09,2.07,5.2,10.5ZM54,37.59l-2.91-4.21,3.49-2.46,2.91,4.21,1.78-1.26-6.65-9.62-1.78,1.26,2.61,3.78-3.49,2.46L47.31,28l-1.78,1.26,6.65,9.63Zm-6.54,2.33a2.12,2.12,0,0,1-.64,1.48,2.31,2.31,0,0,1-2,.68A5.13,5.13,0,0,1,42,40.34a4.9,4.9,0,0,1-1.57-2.69,2.39,2.39,0,0,1,.73-2,2.18,2.18,0,0,1,1.42-.67,2.54,2.54,0,0,1,1.57.46l1.14-1.92a4.69,4.69,0,0,0-2.28-.76,4.26,4.26,0,0,0-3.17,1.36,4.66,4.66,0,0,0-1.48,3.74,6.73,6.73,0,0,0,2.17,4.23,6.33,6.33,0,0,0,4,2.14,4.81,4.81,0,0,0,5-4A5.27,5.27,0,0,0,48.77,37l-2,1a3.56,3.56,0,0,1,.67,2M34.8,51.4l-2.73-3.68L36.46,49Zm-4.3-6.21L29.2,47.1l7.2,10.14,1.3-1.92L36,53.07l2.44-3.57,2.71.73,1.34-2Zm2,19.91L24.29,61l9.15,2.16.93-1.89-7.26-6,8.2,4.09.89-1.83L25.78,52.32l-1.44,3,6.26,5.29-8-1.78-1.44,2.95,10.42,5.2ZM20.73,72.44a2.73,2.73,0,0,1-.34-2.38A2.69,2.69,0,0,1,22,68.25a4.56,4.56,0,0,1,3.09.07A4.71,4.71,0,0,1,27.71,70a2.81,2.81,0,0,1-1.22,4.14,4.54,4.54,0,0,1-3.11,0,4.64,4.64,0,0,1-2.65-1.65m6.67,3.72a5.43,5.43,0,0,0,2.15-7.37,6.39,6.39,0,0,0-3.82-2.63,6.36,6.36,0,0,0-4.66.11,4.92,4.92,0,0,0-2.61,3.23,5.68,5.68,0,0,0-.21,2.38,4.27,4.27,0,0,0,.61,1.65A5.42,5.42,0,0,0,20.1,75a7.94,7.94,0,0,0,2.72,1.33,6.25,6.25,0,0,0,4.58-.12m-9.63,8.18.19-1.7c.1-.88.18-1.41.22-1.59a1.39,1.39,0,0,1,.55-.77,1.51,1.51,0,0,1,1-.18,1.6,1.6,0,0,1,.84.32,1.17,1.17,0,0,1,.42.67,7.86,7.86,0,0,1-.07,2l-.18,1.61Zm9.6,1.1-4.82-.55.05-.44a3.29,3.29,0,0,1,.25-1.08,1.52,1.52,0,0,1,.56-.6,15.61,15.61,0,0,1,1.82-1l2.69-1.29.3-2.6L25.81,79a13.67,13.67,0,0,0-2,1,5.2,5.2,0,0,0-1.1,1.06,3.37,3.37,0,0,0-.83-2.26,3.25,3.25,0,0,0-2.06-1,3.56,3.56,0,0,0-1.88.26,2.61,2.61,0,0,0-1.25,1.13,7.63,7.63,0,0,0-.59,2.48l-.52,4.59,11.55,1.32ZM27,88.74l-2,0,.07,6.07-3.16,0-.07-5.45-2,0L20,94.9l-2.57,0-.08-5.87-2,0,.1,8.06L27.09,97Zm.47,16.92a4.52,4.52,0,0,0,.5-3.29,5.71,5.71,0,0,0-.8-2.26,3.18,3.18,0,0,0-1.52-1.24A3.84,3.84,0,0,0,22,99.4a3.13,3.13,0,0,0-1,1.37,10.23,10.23,0,0,0-.44,2.48,5.48,5.48,0,0,1-.45,2.12.89.89,0,0,1-.64.43.87.87,0,0,1-.77-.22,2.39,2.39,0,0,1-.65-1.41,2.11,2.11,0,0,1,.16-1.44,2.08,2.08,0,0,1,1.18-.8l-.46-2.15a3.48,3.48,0,0,0-2.35,1.49,4.4,4.4,0,0,0-.45,3.2,5.07,5.07,0,0,0,.74,2,2.92,2.92,0,0,0,1.38,1.14,3.17,3.17,0,0,0,1.72.2,3.13,3.13,0,0,0,2.14-1.37,5.88,5.88,0,0,0,.74-2.64c.09-.94.16-1.54.22-1.81a1.72,1.72,0,0,1,.37-.86,1.06,1.06,0,0,1,.65-.34,1.48,1.48,0,0,1,1.2.34,2.39,2.39,0,0,1,.73,1.5,2.32,2.32,0,0,1-.28,1.66,2.82,2.82,0,0,1-1.54,1l.56,2.07a4.59,4.59,0,0,0,2.72-1.79" transform="translate(8.9 13.52)"/></svg>